<mxfile host="app.diagrams.net" modified="2022-09-21T06:13:30.270Z" agent="5.0 (Windows NT 10.0; Win64; x64) AppleWebKit/537.36 (KHTML, like Gecko) Chrome/105.0.0.0 Safari/537.36" etag="j5bID1k5a1WN7W8LsMju" version="20.2.7" type="github">
  <diagram id="wvNanrkGw8UoUiy7fsfP" name="第 1 页">
    <mxGraphModel dx="1635" dy="866" grid="1" gridSize="10" guides="1" tooltips="1" connect="1" arrows="1" fold="1" page="1" pageScale="1" pageWidth="827" pageHeight="1169" math="0" shadow="0">
      <root>
        <mxCell id="0" />
        <mxCell id="1" parent="0" />
        <mxCell id="e1_YcWAHGh3l0eOAa4rq-5" value="Pool" style="swimlane;childLayout=stackLayout;resizeParent=1;resizeParentMax=0;startSize=20;" vertex="1" parent="1">
          <mxGeometry x="180" y="310" width="770" height="1270" as="geometry" />
        </mxCell>
        <mxCell id="e1_YcWAHGh3l0eOAa4rq-17" style="edgeStyle=orthogonalEdgeStyle;rounded=0;orthogonalLoop=1;jettySize=auto;html=1;entryX=1;entryY=0.5;entryDx=0;entryDy=0;exitX=0.5;exitY=1;exitDx=0;exitDy=0;" edge="1" parent="e1_YcWAHGh3l0eOAa4rq-5" source="e1_YcWAHGh3l0eOAa4rq-14" target="e1_YcWAHGh3l0eOAa4rq-16">
          <mxGeometry relative="1" as="geometry" />
        </mxCell>
        <mxCell id="e1_YcWAHGh3l0eOAa4rq-19" value="kafka" style="edgeLabel;html=1;align=center;verticalAlign=middle;resizable=0;points=[];" vertex="1" connectable="0" parent="e1_YcWAHGh3l0eOAa4rq-17">
          <mxGeometry x="0.1351" y="-1" relative="1" as="geometry">
            <mxPoint as="offset" />
          </mxGeometry>
        </mxCell>
        <mxCell id="e1_YcWAHGh3l0eOAa4rq-6" value="backend" style="swimlane;startSize=20;" vertex="1" parent="e1_YcWAHGh3l0eOAa4rq-5">
          <mxGeometry y="20" width="330" height="1250" as="geometry" />
        </mxCell>
        <mxCell id="e1_YcWAHGh3l0eOAa4rq-24" style="edgeStyle=orthogonalEdgeStyle;rounded=0;orthogonalLoop=1;jettySize=auto;html=1;entryX=0.5;entryY=0;entryDx=0;entryDy=0;entryPerimeter=0;" edge="1" parent="e1_YcWAHGh3l0eOAa4rq-6" source="e1_YcWAHGh3l0eOAa4rq-9" target="e1_YcWAHGh3l0eOAa4rq-23">
          <mxGeometry relative="1" as="geometry" />
        </mxCell>
        <mxCell id="e1_YcWAHGh3l0eOAa4rq-9" value="click 统计" style="rounded=0;whiteSpace=wrap;html=1;" vertex="1" parent="e1_YcWAHGh3l0eOAa4rq-6">
          <mxGeometry x="80" y="70" width="90" height="50" as="geometry" />
        </mxCell>
        <mxCell id="e1_YcWAHGh3l0eOAa4rq-21" style="edgeStyle=orthogonalEdgeStyle;rounded=0;orthogonalLoop=1;jettySize=auto;html=1;entryX=0.5;entryY=0;entryDx=0;entryDy=0;entryPerimeter=0;" edge="1" parent="e1_YcWAHGh3l0eOAa4rq-6" source="e1_YcWAHGh3l0eOAa4rq-16" target="e1_YcWAHGh3l0eOAa4rq-20">
          <mxGeometry relative="1" as="geometry" />
        </mxCell>
        <mxCell id="e1_YcWAHGh3l0eOAa4rq-16" value="kafka listener" style="rounded=0;whiteSpace=wrap;html=1;" vertex="1" parent="e1_YcWAHGh3l0eOAa4rq-6">
          <mxGeometry x="80" y="305" width="90" height="50" as="geometry" />
        </mxCell>
        <mxCell id="e1_YcWAHGh3l0eOAa4rq-20" value="update status=0, userNum=x" style="shape=cylinder3;whiteSpace=wrap;html=1;boundedLbl=1;backgroundOutline=1;size=15;" vertex="1" parent="e1_YcWAHGh3l0eOAa4rq-6">
          <mxGeometry x="87.5" y="420" width="75" height="70" as="geometry" />
        </mxCell>
        <mxCell id="e1_YcWAHGh3l0eOAa4rq-23" value="update status=1" style="shape=cylinder3;whiteSpace=wrap;html=1;boundedLbl=1;backgroundOutline=1;size=15;" vertex="1" parent="e1_YcWAHGh3l0eOAa4rq-6">
          <mxGeometry x="87.5" y="180" width="75" height="70" as="geometry" />
        </mxCell>
        <mxCell id="e1_YcWAHGh3l0eOAa4rq-25" value="生成人群包" style="rounded=0;whiteSpace=wrap;html=1;" vertex="1" parent="e1_YcWAHGh3l0eOAa4rq-6">
          <mxGeometry x="87.5" y="530" width="90" height="50" as="geometry" />
        </mxCell>
        <mxCell id="e1_YcWAHGh3l0eOAa4rq-34" style="edgeStyle=orthogonalEdgeStyle;rounded=0;orthogonalLoop=1;jettySize=auto;html=1;" edge="1" parent="e1_YcWAHGh3l0eOAa4rq-6" source="e1_YcWAHGh3l0eOAa4rq-30" target="e1_YcWAHGh3l0eOAa4rq-33">
          <mxGeometry relative="1" as="geometry" />
        </mxCell>
        <mxCell id="e1_YcWAHGh3l0eOAa4rq-30" value="qiniu url" style="rounded=0;whiteSpace=wrap;html=1;" vertex="1" parent="e1_YcWAHGh3l0eOAa4rq-6">
          <mxGeometry x="87.5" y="630" width="90" height="50" as="geometry" />
        </mxCell>
        <mxCell id="e1_YcWAHGh3l0eOAa4rq-33" value="update url = x" style="shape=cylinder3;whiteSpace=wrap;html=1;boundedLbl=1;backgroundOutline=1;size=15;" vertex="1" parent="e1_YcWAHGh3l0eOAa4rq-6">
          <mxGeometry x="95" y="730" width="75" height="70" as="geometry" />
        </mxCell>
        <mxCell id="e1_YcWAHGh3l0eOAa4rq-36" value="" style="endArrow=none;html=1;rounded=0;" edge="1" parent="e1_YcWAHGh3l0eOAa4rq-6">
          <mxGeometry width="50" height="50" relative="1" as="geometry">
            <mxPoint y="500" as="sourcePoint" />
            <mxPoint x="770" y="480" as="targetPoint" />
          </mxGeometry>
        </mxCell>
        <mxCell id="e1_YcWAHGh3l0eOAa4rq-50" value="推送计划" style="rounded=0;whiteSpace=wrap;html=1;" vertex="1" parent="e1_YcWAHGh3l0eOAa4rq-6">
          <mxGeometry x="87.5" y="849" width="90" height="50" as="geometry" />
        </mxCell>
        <mxCell id="e1_YcWAHGh3l0eOAa4rq-52" value="执行任务" style="rounded=0;whiteSpace=wrap;html=1;" vertex="1" parent="e1_YcWAHGh3l0eOAa4rq-6">
          <mxGeometry x="87.5" y="950" width="90" height="50" as="geometry" />
        </mxCell>
        <mxCell id="e1_YcWAHGh3l0eOAa4rq-59" value="kafka listener" style="rounded=0;whiteSpace=wrap;html=1;" vertex="1" parent="e1_YcWAHGh3l0eOAa4rq-6">
          <mxGeometry x="87.5" y="1040" width="90" height="50" as="geometry" />
        </mxCell>
        <mxCell id="e1_YcWAHGh3l0eOAa4rq-51" style="edgeStyle=orthogonalEdgeStyle;rounded=0;orthogonalLoop=1;jettySize=auto;html=1;entryX=0.5;entryY=0;entryDx=0;entryDy=0;" edge="1" parent="e1_YcWAHGh3l0eOAa4rq-6" source="e1_YcWAHGh3l0eOAa4rq-50" target="e1_YcWAHGh3l0eOAa4rq-52">
          <mxGeometry relative="1" as="geometry">
            <mxPoint x="132.5" y="940" as="targetPoint" />
          </mxGeometry>
        </mxCell>
        <mxCell id="e1_YcWAHGh3l0eOAa4rq-64" value="send sms or push" style="rounded=0;whiteSpace=wrap;html=1;" vertex="1" parent="e1_YcWAHGh3l0eOAa4rq-6">
          <mxGeometry x="87.5" y="1150" width="90" height="50" as="geometry" />
        </mxCell>
        <mxCell id="e1_YcWAHGh3l0eOAa4rq-12" value="" style="edgeStyle=orthogonalEdgeStyle;rounded=0;orthogonalLoop=1;jettySize=auto;html=1;" edge="1" parent="e1_YcWAHGh3l0eOAa4rq-5" target="e1_YcWAHGh3l0eOAa4rq-10">
          <mxGeometry relative="1" as="geometry">
            <mxPoint x="160" y="225" as="sourcePoint" />
          </mxGeometry>
        </mxCell>
        <mxCell id="e1_YcWAHGh3l0eOAa4rq-27" style="edgeStyle=orthogonalEdgeStyle;rounded=0;orthogonalLoop=1;jettySize=auto;html=1;" edge="1" parent="e1_YcWAHGh3l0eOAa4rq-5" source="e1_YcWAHGh3l0eOAa4rq-25" target="e1_YcWAHGh3l0eOAa4rq-26">
          <mxGeometry relative="1" as="geometry" />
        </mxCell>
        <mxCell id="e1_YcWAHGh3l0eOAa4rq-7" value="bigdata" style="swimlane;startSize=20;" vertex="1" parent="e1_YcWAHGh3l0eOAa4rq-5">
          <mxGeometry x="330" y="20" width="440" height="1250" as="geometry" />
        </mxCell>
        <mxCell id="e1_YcWAHGh3l0eOAa4rq-10" value="统计接口" style="rounded=0;whiteSpace=wrap;html=1;" vertex="1" parent="e1_YcWAHGh3l0eOAa4rq-7">
          <mxGeometry x="90" y="180" width="90" height="50" as="geometry" />
        </mxCell>
        <mxCell id="e1_YcWAHGh3l0eOAa4rq-14" value="统计结束" style="rounded=1;whiteSpace=wrap;html=1;" vertex="1" parent="e1_YcWAHGh3l0eOAa4rq-7">
          <mxGeometry x="250" y="177.5" width="100" height="55" as="geometry" />
        </mxCell>
        <mxCell id="e1_YcWAHGh3l0eOAa4rq-13" style="edgeStyle=orthogonalEdgeStyle;rounded=0;orthogonalLoop=1;jettySize=auto;html=1;entryX=0;entryY=0.5;entryDx=0;entryDy=0;" edge="1" parent="e1_YcWAHGh3l0eOAa4rq-7" source="e1_YcWAHGh3l0eOAa4rq-10" target="e1_YcWAHGh3l0eOAa4rq-14">
          <mxGeometry relative="1" as="geometry">
            <mxPoint x="153" y="300" as="targetPoint" />
            <Array as="points" />
          </mxGeometry>
        </mxCell>
        <mxCell id="e1_YcWAHGh3l0eOAa4rq-29" style="edgeStyle=orthogonalEdgeStyle;rounded=0;orthogonalLoop=1;jettySize=auto;html=1;entryX=0.16;entryY=0.55;entryDx=0;entryDy=0;entryPerimeter=0;" edge="1" parent="e1_YcWAHGh3l0eOAa4rq-7" source="e1_YcWAHGh3l0eOAa4rq-26" target="e1_YcWAHGh3l0eOAa4rq-28">
          <mxGeometry relative="1" as="geometry" />
        </mxCell>
        <mxCell id="e1_YcWAHGh3l0eOAa4rq-26" value="人群圈选接口" style="rounded=0;whiteSpace=wrap;html=1;" vertex="1" parent="e1_YcWAHGh3l0eOAa4rq-7">
          <mxGeometry x="90" y="530" width="90" height="50" as="geometry" />
        </mxCell>
        <mxCell id="e1_YcWAHGh3l0eOAa4rq-28" value="upload qiniu" style="ellipse;shape=cloud;whiteSpace=wrap;html=1;" vertex="1" parent="e1_YcWAHGh3l0eOAa4rq-7">
          <mxGeometry x="250" y="510" width="120" height="80" as="geometry" />
        </mxCell>
        <mxCell id="e1_YcWAHGh3l0eOAa4rq-37" value="" style="endArrow=none;html=1;rounded=0;" edge="1" parent="e1_YcWAHGh3l0eOAa4rq-7">
          <mxGeometry width="50" height="50" relative="1" as="geometry">
            <mxPoint x="-330" y="820" as="sourcePoint" />
            <mxPoint x="440" y="800" as="targetPoint" />
          </mxGeometry>
        </mxCell>
        <mxCell id="e1_YcWAHGh3l0eOAa4rq-54" value="人群圈选接口" style="rounded=0;whiteSpace=wrap;html=1;" vertex="1" parent="e1_YcWAHGh3l0eOAa4rq-7">
          <mxGeometry x="90" y="950" width="90" height="50" as="geometry" />
        </mxCell>
        <mxCell id="e1_YcWAHGh3l0eOAa4rq-57" value="人群结果" style="rounded=1;whiteSpace=wrap;html=1;" vertex="1" parent="e1_YcWAHGh3l0eOAa4rq-7">
          <mxGeometry x="270" y="950" width="110" height="50" as="geometry" />
        </mxCell>
        <mxCell id="e1_YcWAHGh3l0eOAa4rq-56" style="edgeStyle=orthogonalEdgeStyle;rounded=0;orthogonalLoop=1;jettySize=auto;html=1;entryX=0;entryY=0.5;entryDx=0;entryDy=0;" edge="1" parent="e1_YcWAHGh3l0eOAa4rq-7" source="e1_YcWAHGh3l0eOAa4rq-54" target="e1_YcWAHGh3l0eOAa4rq-57">
          <mxGeometry relative="1" as="geometry">
            <mxPoint x="270" y="965" as="targetPoint" />
          </mxGeometry>
        </mxCell>
        <mxCell id="e1_YcWAHGh3l0eOAa4rq-32" style="edgeStyle=orthogonalEdgeStyle;rounded=0;orthogonalLoop=1;jettySize=auto;html=1;entryX=1;entryY=0.5;entryDx=0;entryDy=0;exitX=0.55;exitY=0.95;exitDx=0;exitDy=0;exitPerimeter=0;" edge="1" parent="e1_YcWAHGh3l0eOAa4rq-5" source="e1_YcWAHGh3l0eOAa4rq-28" target="e1_YcWAHGh3l0eOAa4rq-30">
          <mxGeometry relative="1" as="geometry">
            <Array as="points">
              <mxPoint x="646" y="675" />
            </Array>
          </mxGeometry>
        </mxCell>
        <mxCell id="e1_YcWAHGh3l0eOAa4rq-35" value="kafka" style="edgeLabel;html=1;align=center;verticalAlign=middle;resizable=0;points=[];" vertex="1" connectable="0" parent="e1_YcWAHGh3l0eOAa4rq-32">
          <mxGeometry x="0.2204" y="-2" relative="1" as="geometry">
            <mxPoint as="offset" />
          </mxGeometry>
        </mxCell>
        <mxCell id="e1_YcWAHGh3l0eOAa4rq-55" style="edgeStyle=orthogonalEdgeStyle;rounded=0;orthogonalLoop=1;jettySize=auto;html=1;entryX=0;entryY=0.5;entryDx=0;entryDy=0;" edge="1" parent="e1_YcWAHGh3l0eOAa4rq-5" source="e1_YcWAHGh3l0eOAa4rq-52" target="e1_YcWAHGh3l0eOAa4rq-54">
          <mxGeometry relative="1" as="geometry" />
        </mxCell>
        <mxCell id="e1_YcWAHGh3l0eOAa4rq-58" value="规则参数" style="edgeLabel;html=1;align=center;verticalAlign=middle;resizable=0;points=[];" vertex="1" connectable="0" parent="e1_YcWAHGh3l0eOAa4rq-55">
          <mxGeometry x="-0.139" y="-2" relative="1" as="geometry">
            <mxPoint as="offset" />
          </mxGeometry>
        </mxCell>
        <mxCell id="e1_YcWAHGh3l0eOAa4rq-60" style="edgeStyle=orthogonalEdgeStyle;rounded=0;orthogonalLoop=1;jettySize=auto;html=1;entryX=1;entryY=0.5;entryDx=0;entryDy=0;exitX=0.5;exitY=1;exitDx=0;exitDy=0;" edge="1" parent="e1_YcWAHGh3l0eOAa4rq-5" source="e1_YcWAHGh3l0eOAa4rq-57" target="e1_YcWAHGh3l0eOAa4rq-59">
          <mxGeometry relative="1" as="geometry" />
        </mxCell>
        <mxCell id="e1_YcWAHGh3l0eOAa4rq-62" value="kafka" style="edgeLabel;html=1;align=center;verticalAlign=middle;resizable=0;points=[];" vertex="1" connectable="0" parent="e1_YcWAHGh3l0eOAa4rq-60">
          <mxGeometry x="0.1878" y="-2" relative="1" as="geometry">
            <mxPoint as="offset" />
          </mxGeometry>
        </mxCell>
        <mxCell id="e1_YcWAHGh3l0eOAa4rq-63" style="edgeStyle=orthogonalEdgeStyle;rounded=0;orthogonalLoop=1;jettySize=auto;html=1;" edge="1" parent="1" source="e1_YcWAHGh3l0eOAa4rq-59">
          <mxGeometry relative="1" as="geometry">
            <mxPoint x="312.5" y="1480" as="targetPoint" />
          </mxGeometry>
        </mxCell>
      </root>
    </mxGraphModel>
  </diagram>
</mxfile>
